<svg xmlns="http://www.w3.org/2000/svg" width="418.912" height="158.504" viewBox="0 0 418.912 158.504"><g transform="translate(-195.525 -311.039)"><path d="M451.05,344.691H410.934l21.9,31.007Z" fill="#1c1c1c"/><path d="M410.739,469.543H452.8l-22.977-32.519Z" fill="#1c1c1c"/><path d="M401.7,397.269l-37.249-52.578H322.2a63.672,63.672,0,0,0-31.513,7.986,59.764,59.764,0,0,0-22.755,22.239,65.494,65.494,0,0,0,0,64.229c.143.242.3.467.447.706H234.759V344.414H195.525V469.543h170.5l36.058-56.487A14.145,14.145,0,0,0,401.7,397.269ZM339.712,426.7q-6.173,7.29-17.483,7.3H322.2q-11.507,0-17.689-7.3t-6.182-19.664q0-12.534,6.182-19.836t17.689-7.3h.034q11.311.012,17.483,7.3,6.184,7.3,6.183,19.836Q345.895,419.4,339.712,426.7Z" fill="#1c1c1c"/><path d="M528.965,312.375a9.368,9.368,0,0,1,3.812,3.708,11.579,11.579,0,0,1,0,10.8,9.6,9.6,0,0,1-3.812,3.782,11.66,11.66,0,0,1-5.769,1.38h-8.752V311.039H523.2A11.978,11.978,0,0,1,528.965,312.375Zm-2.833,12.578a5.269,5.269,0,0,0,0-6.942,4.974,4.974,0,0,0-3.53-1.216H521.03v9.375H522.6A4.966,4.966,0,0,0,526.132,324.953Z" fill="#1c1c1c"/><path d="M543.072,316.291v2.581H549.6v4.954h-6.527v2.967h7.417v5.251h-14V311.039h14v5.252Z" fill="#1c1c1c"/><path d="M574.132,311.039l-7.06,21.005h-8.514L551.5,311.039h7l4.331,14.449,4.3-14.449Z" fill="#1c1c1c"/><path d="M578.135,369.927l-9.2-25.236H495.748l-11.476,17.941-23.73,37.1a14.02,14.02,0,0,0,.371,15.66l24.215,34.175,14.156,19.977H519l6.187-18.911H566.9l6.185,18.911h41.357Zm-43.406,51.191,11.31-34.818,11.312,34.818Z" fill="#1c1c1c"/></g></svg>